<?xml version="1.0" encoding="UTF-8" standalone="no"?>
<!-- Created with Inkscape (http://www.inkscape.org/) -->

<svg
   xmlns:dc="http://purl.org/dc/elements/1.1/"
   xmlns:cc="http://creativecommons.org/ns#"
   xmlns:rdf="http://www.w3.org/1999/02/22-rdf-syntax-ns#"
   xmlns:svg="http://www.w3.org/2000/svg"
   xmlns="http://www.w3.org/2000/svg"
   xmlns:sodipodi="http://sodipodi.sourceforge.net/DTD/sodipodi-0.dtd"
   xmlns:inkscape="http://www.inkscape.org/namespaces/inkscape"
   id="svg2"
   version="1.1"
   inkscape:version="0.91 r"
   xml:space="preserve"
   width="400"
   height="300"
   viewBox="0 0 400 300"
   sodipodi:docname="schema_function.svg"><metadata
     id="metadata8"><rdf:RDF><cc:Work
         rdf:about=""><dc:format>image/svg+xml</dc:format><dc:type
           rdf:resource="http://purl.org/dc/dcmitype/StillImage" /><dc:title /></cc:Work></rdf:RDF></metadata><defs
     id="defs6" /><sodipodi:namedview
     pagecolor="#ffffff"
     bordercolor="#666666"
     borderopacity="1"
     objecttolerance="10"
     gridtolerance="10"
     guidetolerance="10"
     inkscape:pageopacity="0"
     inkscape:pageshadow="2"
     inkscape:window-width="1920"
     inkscape:window-height="1028"
     id="namedview4"
     showgrid="false"
     inkscape:zoom="1.5733333"
     inkscape:cx="162.81676"
     inkscape:cy="140.26396"
     inkscape:window-x="1920"
     inkscape:window-y="0"
     inkscape:window-maximized="1"
     inkscape:current-layer="g10" /><g
     inkscape:groupmode="layer"
     id="layer2"
     inkscape:label="background"
     style="display:inline"><rect
       style="fill:#ffffff;fill-opacity:1;stroke:#000000;stroke-width:2.52782369;stroke-linecap:butt;stroke-miterlimit:10;stroke-dasharray:none;stroke-opacity:0"
       id="rect4244"
       width="417.6925"
       height="366.20944"
       x="-10.541173"
       y="-37.236088" /></g><g
     id="g10"
     inkscape:groupmode="layer"
     inkscape:label="schema_function"
     transform="matrix(1.25,0,0,-1.25,0,300)"
     style="display:inline"><g
       id="g12"><text
         transform="matrix(1,0,0,-1,73.139828,203.36439)"
         style="font-variant:normal;font-weight:normal;font-size:25.60000038px;font-family:Lato;-inkscape-font-specification:Lato-Regular;writing-mode:lr-tb;fill:#ff0000;fill-opacity:1;fill-rule:nonzero;stroke:none"
         id="text14"><tspan
           x="0 7.8592 22.0928 36.223999 50.4576 60.006401 64.947197 79.155197 92.134399 101.9648 114.944 135.96159 149.37601 158.9248 172.3392 182.65601"
           y="0"
           sodipodi:role="line"
           id="tspan16">Input parameters</tspan><tspan
           x="91.438004 107.9244 121.33881 132.4492 146.6828 153.2364 162.7852"
           y="186.70374"
           sodipodi:role="line"
           id="tspan18">Results</tspan></text>
<g
         id="g20"
         transform="translate(0,240)"><path
           d="m 28.176,-64.172 52.32,0 0,-25.879 -52.32,0 0,25.879 z"
           style="fill:none;stroke:#000000;stroke-width:1.07735097;stroke-linecap:butt;stroke-linejoin:miter;stroke-miterlimit:10;stroke-dasharray:none;stroke-opacity:1"
           id="path22"
           inkscape:connector-curvature="0" /></g><g
         id="g24"
         transform="translate(0,240)"><path
           d="m 127.531,-64.172 52.32,0 0,-25.879 -52.32,0 0,25.879 z"
           style="fill:none;stroke:#000000;stroke-width:1.07735097;stroke-linecap:butt;stroke-linejoin:miter;stroke-miterlimit:10;stroke-dasharray:none;stroke-opacity:1"
           id="path26"
           inkscape:connector-curvature="0" /></g><g
         id="g28"
         transform="translate(0,240)"><path
           d="m 226.887,-64.172 52.32,0 0,-25.879 -52.32,0 0,25.879 z"
           style="fill:none;stroke:#000000;stroke-width:1.07735097;stroke-linecap:butt;stroke-linejoin:miter;stroke-miterlimit:10;stroke-dasharray:none;stroke-opacity:1"
           id="path30"
           inkscape:connector-curvature="0" /></g><g
         id="g32"
         transform="translate(0,240)"><path
           d="m 28.176,-155.18 52.32,0 0,-25.879 -52.32,0 0,25.879 z"
           style="fill:none;stroke:#000000;stroke-width:1.07735097;stroke-linecap:butt;stroke-linejoin:miter;stroke-miterlimit:10;stroke-dasharray:none;stroke-opacity:1"
           id="path34"
           inkscape:connector-curvature="0" /></g><g
         id="g36"
         transform="translate(0,240)"><path
           d="m 127.531,-155.18 52.32,0 0,-25.879 -52.32,0 0,25.879 z"
           style="fill:none;stroke:#000000;stroke-width:1.07735097;stroke-linecap:butt;stroke-linejoin:miter;stroke-miterlimit:10;stroke-dasharray:none;stroke-opacity:1"
           id="path38"
           inkscape:connector-curvature="0" /></g><g
         id="g40"
         transform="translate(0,240)"><path
           d="m 226.883,-155.18 52.324,0 0,-25.879 -52.324,0 0,25.879 z"
           style="fill:none;stroke:#000000;stroke-width:1.07735097;stroke-linecap:butt;stroke-linejoin:miter;stroke-miterlimit:10;stroke-dasharray:none;stroke-opacity:1"
           id="path42"
           inkscape:connector-curvature="0" /></g><g
         id="g44"
         transform="translate(0,240)"><path
           d="m 28.176,-108.316 52.32,0 0,-25.879 -52.32,0 0,25.879 z"
           style="fill:none;stroke:#000000;stroke-width:1.07735097;stroke-linecap:butt;stroke-linejoin:miter;stroke-miterlimit:10;stroke-dasharray:none;stroke-opacity:1"
           id="path46"
           inkscape:connector-curvature="0" /></g><g
         id="g48"
         transform="translate(0,240)"><path
           d="m 127.531,-108.316 52.32,0 0,-25.879 -52.32,0 0,25.879 z"
           style="fill:none;stroke:#000000;stroke-width:1.07735097;stroke-linecap:butt;stroke-linejoin:miter;stroke-miterlimit:10;stroke-dasharray:none;stroke-opacity:1"
           id="path50"
           inkscape:connector-curvature="0" /></g><g
         id="g52"
         transform="translate(0,240)"><path
           d="m 226.883,-108.316 52.324,0 0,-25.879 -52.324,0 0,25.879 z"
           style="fill:none;stroke:#000000;stroke-width:1.07735097;stroke-linecap:butt;stroke-linejoin:miter;stroke-miterlimit:10;stroke-dasharray:none;stroke-opacity:1"
           id="path54"
           inkscape:connector-curvature="0" /></g><g
         id="g56"
         transform="translate(0,240)"><path
           d="m 80.496,-77.109 42.293,-39.7"
           style="fill:none;stroke:#000000;stroke-width:1.07735097;stroke-linecap:butt;stroke-linejoin:miter;stroke-miterlimit:10;stroke-dasharray:none;stroke-opacity:1"
           id="path58"
           inkscape:connector-curvature="0" /></g><path
         d="m 127.531,118.742 c -3.008,1.266 -7.101,2.453 -10.222,2.567 l 4.859,2.468 2.156,5.004 c 0.309,-3.105 1.75,-7.117 3.207,-10.039"
         style="fill:#000000;fill-opacity:1;fill-rule:nonzero;stroke:none"
         id="path60"
         inkscape:connector-curvature="0" /><g
         id="g62"
         transform="translate(0,240)"><path
           d="m 80.496,-77.109 40.535,0"
           style="fill:none;stroke:#000000;stroke-width:1.07735097;stroke-linecap:butt;stroke-linejoin:miter;stroke-miterlimit:10;stroke-dasharray:none;stroke-opacity:1"
           id="path64"
           inkscape:connector-curvature="0" /></g><path
         d="m 127.531,162.891 c -3.058,-1.137 -6.855,-3.075 -9.207,-5.125 l 1.852,5.125 -1.852,5.121 c 2.352,-2.051 6.149,-3.989 9.207,-5.121"
         style="fill:#000000;fill-opacity:1;fill-rule:nonzero;stroke:none"
         id="path66"
         inkscape:connector-curvature="0" /><g
         id="g68"
         transform="translate(0,240)"><path
           d="m 80.496,-77.109 44.051,-85.235"
           style="fill:none;stroke:#000000;stroke-width:1.07735097;stroke-linecap:butt;stroke-linejoin:miter;stroke-miterlimit:10;stroke-dasharray:none;stroke-opacity:1"
           id="path70"
           inkscape:connector-curvature="0" /></g><path
         d="m 127.531,71.879 c -2.414,2.199 -5.879,4.683 -8.781,5.832 l 5.402,0.703 3.703,4 c -0.742,-3.031 -0.722,-7.293 -0.324,-10.535"
         style="fill:#000000;fill-opacity:1;fill-rule:nonzero;stroke:none"
         id="path72"
         inkscape:connector-curvature="0" /><g
         id="g74"
         transform="translate(0,240)"><path
           d="m 54.336,-93.301 0,-11.765"
           style="fill:none;stroke:#000000;stroke-width:1.07735097;stroke-linecap:butt;stroke-linejoin:miter;stroke-miterlimit:10;stroke-dasharray:none;stroke-opacity:1"
           id="path76"
           inkscape:connector-curvature="0" /></g><path
         d="m 54.336,149.949 c -0.566,-1.527 -1.535,-3.426 -2.563,-4.601 l 2.563,0.925 2.562,-0.925 c -1.027,1.175 -1.996,3.074 -2.562,4.601"
         style="fill:#000000;fill-opacity:1;fill-rule:nonzero;stroke:none"
         id="path78"
         inkscape:connector-curvature="0" /><path
         d="m 54.336,131.684 c -0.566,1.531 -1.535,3.425 -2.559,4.601 l 2.559,-0.926 2.562,0.926 c -1.027,-1.176 -1.992,-3.07 -2.562,-4.601"
         style="fill:#000000;fill-opacity:1;fill-rule:nonzero;stroke:none"
         id="path80"
         inkscape:connector-curvature="0" /><g
         id="g82"
         transform="translate(0,240)"><path
           d="m 54.336,-137.445 0,-14.485"
           style="fill:none;stroke:#000000;stroke-width:1.07735097;stroke-linecap:butt;stroke-linejoin:miter;stroke-miterlimit:10;stroke-dasharray:none;stroke-opacity:1"
           id="path84"
           inkscape:connector-curvature="0" /></g><path
         d="m 54.336,105.805 c -0.566,-1.532 -1.535,-3.43 -2.563,-4.606 l 2.563,0.926 2.562,-0.926 c -1.027,1.176 -1.996,3.074 -2.562,4.606"
         style="fill:#000000;fill-opacity:1;fill-rule:nonzero;stroke:none"
         id="path86"
         inkscape:connector-curvature="0" /><path
         d="m 54.336,84.82 c -0.566,1.532 -1.535,3.426 -2.563,4.602 l 2.563,-0.926 2.562,0.926 c -1.027,-1.176 -1.996,-3.07 -2.562,-4.602"
         style="fill:#000000;fill-opacity:1;fill-rule:nonzero;stroke:none"
         id="path88"
         inkscape:connector-curvature="0" /><g
         id="g90"
         transform="translate(0,240)"><path
           d="m 153.691,-137.445 0,-14.485"
           style="fill:none;stroke:#000000;stroke-width:1.07735097;stroke-linecap:butt;stroke-linejoin:miter;stroke-miterlimit:10;stroke-dasharray:none;stroke-opacity:1"
           id="path92"
           inkscape:connector-curvature="0" /></g><path
         d="m 153.691,105.805 c -0.566,-1.532 -1.535,-3.43 -2.562,-4.606 l 2.562,0.926 2.563,-0.926 c -1.027,1.176 -1.996,3.074 -2.563,4.606"
         style="fill:#000000;fill-opacity:1;fill-rule:nonzero;stroke:none"
         id="path94"
         inkscape:connector-curvature="0" /><path
         d="m 153.691,84.82 c -0.566,1.532 -1.535,3.426 -2.558,4.602 l 2.558,-0.926 2.563,0.926 c -1.027,-1.176 -1.992,-3.07 -2.563,-4.602"
         style="fill:#000000;fill-opacity:1;fill-rule:nonzero;stroke:none"
         id="path96"
         inkscape:connector-curvature="0" /><g
         id="g98"
         transform="translate(0,240)"><path
           d="m 253.047,-137.445 0,-14.485"
           style="fill:none;stroke:#000000;stroke-width:1.07735097;stroke-linecap:butt;stroke-linejoin:miter;stroke-miterlimit:10;stroke-dasharray:none;stroke-opacity:1"
           id="path100"
           inkscape:connector-curvature="0" /></g><path
         d="m 253.047,105.805 c -0.567,-1.532 -1.535,-3.43 -2.563,-4.606 l 2.563,0.926 2.562,-0.926 c -1.027,1.176 -1.996,3.074 -2.562,4.606"
         style="fill:#000000;fill-opacity:1;fill-rule:nonzero;stroke:none"
         id="path102"
         inkscape:connector-curvature="0" /><path
         d="m 253.047,84.82 c -0.567,1.532 -1.535,3.426 -2.563,4.602 l 2.563,-0.926 2.562,0.926 c -1.027,-1.176 -1.992,-3.07 -2.562,-4.602"
         style="fill:#000000;fill-opacity:1;fill-rule:nonzero;stroke:none"
         id="path104"
         inkscape:connector-curvature="0" /><g
         id="g106"
         transform="translate(0,240)"><path
           d="m 153.691,-93.301 0,-11.765"
           style="fill:none;stroke:#000000;stroke-width:1.07735097;stroke-linecap:butt;stroke-linejoin:miter;stroke-miterlimit:10;stroke-dasharray:none;stroke-opacity:1"
           id="path108"
           inkscape:connector-curvature="0" /></g><path
         d="m 153.691,149.949 c -0.57,-1.527 -1.539,-3.426 -2.562,-4.601 l 2.562,0.925 2.563,-0.925 c -1.027,1.175 -1.996,3.074 -2.563,4.601"
         style="fill:#000000;fill-opacity:1;fill-rule:nonzero;stroke:none"
         id="path110"
         inkscape:connector-curvature="0" /><path
         d="m 153.691,131.684 c -0.57,1.531 -1.535,3.425 -2.562,4.601 l 2.562,-0.926 2.563,0.926 c -1.027,-1.176 -1.996,-3.07 -2.563,-4.601"
         style="fill:#000000;fill-opacity:1;fill-rule:nonzero;stroke:none"
         id="path112"
         inkscape:connector-curvature="0" /><g
         id="g114"
         transform="translate(0,240)"><path
           d="m 253.047,-93.301 0,-11.765"
           style="fill:none;stroke:#000000;stroke-width:1.07735097;stroke-linecap:butt;stroke-linejoin:miter;stroke-miterlimit:10;stroke-dasharray:none;stroke-opacity:1"
           id="path116"
           inkscape:connector-curvature="0" /></g><path
         d="m 253.047,149.949 c -0.567,-1.527 -1.535,-3.426 -2.563,-4.601 l 2.563,0.925 2.562,-0.925 c -1.027,1.175 -1.996,3.074 -2.562,4.601"
         style="fill:#000000;fill-opacity:1;fill-rule:nonzero;stroke:none"
         id="path118"
         inkscape:connector-curvature="0" /><path
         d="m 253.047,131.684 c -0.567,1.531 -1.535,3.425 -2.563,4.601 l 2.563,-0.926 2.562,0.926 c -1.027,-1.176 -1.992,-3.07 -2.562,-4.601"
         style="fill:#000000;fill-opacity:1;fill-rule:nonzero;stroke:none"
         id="path120"
         inkscape:connector-curvature="0" /><g
         id="g122"
         transform="translate(0,240)"><path
           d="m 28.176,-77.109 c 0,0 -22.688,-19.262 -4.676,-39.629"
           style="fill:none;stroke:#000000;stroke-width:1.07735097;stroke-linecap:butt;stroke-linejoin:miter;stroke-miterlimit:10;stroke-dasharray:none;stroke-opacity:1"
           id="path124"
           inkscape:connector-curvature="0" /></g><path
         d="m 28.176,118.742 c -2.965,1.36 -7.02,2.672 -10.137,2.883 l 4.934,2.316 2.308,4.934 c 0.215,-3.113 1.531,-7.168 2.895,-10.133"
         style="fill:#000000;fill-opacity:1;fill-rule:nonzero;stroke:none"
         id="path126"
         inkscape:connector-curvature="0" /><g
         id="g128"
         transform="translate(0,240)"><path
           d="m 179.852,-121.258 c 0,0 22.687,19.258 4.675,39.625"
           style="fill:none;stroke:#000000;stroke-width:1.07735097;stroke-linecap:butt;stroke-linejoin:miter;stroke-miterlimit:10;stroke-dasharray:none;stroke-opacity:1"
           id="path130"
           inkscape:connector-curvature="0" /></g><path
         d="m 179.852,162.891 c 2.968,-1.36 7.023,-2.672 10.136,-2.883 l -4.933,-2.317 -2.309,-4.933 c -0.215,3.113 -1.531,7.168 -2.894,10.133"
         style="fill:#000000;fill-opacity:1;fill-rule:nonzero;stroke:none"
         id="path132"
         inkscape:connector-curvature="0" /><g
         id="g134"
         transform="translate(0,240)"><path
           d="m 226.887,-77.109 c 0,0 -22.688,-19.262 -4.68,-39.629"
           style="fill:none;stroke:#000000;stroke-width:1.07735097;stroke-linecap:butt;stroke-linejoin:miter;stroke-miterlimit:10;stroke-dasharray:none;stroke-opacity:1"
           id="path136"
           inkscape:connector-curvature="0" /></g><path
         d="m 226.887,118.742 c -2.969,1.36 -7.024,2.672 -10.137,2.883 l 4.934,2.316 2.308,4.934 c 0.215,-3.113 1.531,-7.168 2.895,-10.133"
         style="fill:#000000;fill-opacity:1;fill-rule:nonzero;stroke:none"
         id="path138"
         inkscape:connector-curvature="0" /><g
         id="g140"
         transform="translate(0,240)"><path
           d="m 226.887,-168.918 c 0,0 -22.688,19.262 -4.68,39.629"
           style="fill:none;stroke:#000000;stroke-width:1.07735097;stroke-linecap:butt;stroke-linejoin:miter;stroke-miterlimit:10;stroke-dasharray:none;stroke-opacity:1"
           id="path142"
           inkscape:connector-curvature="0" /></g><path
         d="m 226.887,115.23 c -1.364,-2.964 -2.68,-7.019 -2.895,-10.132 l -2.308,4.933 -4.934,2.317 c 3.113,0.211 7.168,1.523 10.137,2.882"
         style="fill:#000000;fill-opacity:1;fill-rule:nonzero;stroke:none"
         id="path144"
         inkscape:connector-curvature="0" /><g
         id="g146"
         transform="translate(0,240)"><path
           d="m 226.887,-168.918 -42.469,43.031"
           style="fill:none;stroke:#000000;stroke-width:1.07735097;stroke-linecap:butt;stroke-linejoin:miter;stroke-miterlimit:10;stroke-dasharray:none;stroke-opacity:1"
           id="path148"
           inkscape:connector-curvature="0" /></g><path
         d="m 179.852,118.742 c 2.957,-1.379 7,-2.719 10.113,-2.953 l -4.945,-2.281 -2.348,-4.918 c -0.192,3.117 -1.477,7.18 -2.82,10.152"
         style="fill:#000000;fill-opacity:1;fill-rule:nonzero;stroke:none"
         id="path150"
         inkscape:connector-curvature="0" /><g
         id="g152"
         transform="translate(0,240)"><path
           d="m 80.496,-168.918 c 0,0 22.692,19.262 4.68,39.629"
           style="fill:none;stroke:#000000;stroke-width:1.07735097;stroke-linecap:butt;stroke-linejoin:miter;stroke-miterlimit:10;stroke-dasharray:none;stroke-opacity:1"
           id="path154"
           inkscape:connector-curvature="0" /></g><path
         d="m 80.496,115.23 c 2.969,-1.359 7.024,-2.671 10.137,-2.882 l -4.93,-2.317 -2.312,-4.933 c -0.215,3.113 -1.532,7.168 -2.895,10.132"
         style="fill:#000000;fill-opacity:1;fill-rule:nonzero;stroke:none"
         id="path156"
         inkscape:connector-curvature="0" /><g
         id="g158"
         transform="translate(0,240)"><path
           d="m 150.535,-181.867 c -50.531,-12.371 -96.199,0.808 -96.199,0.808"
           style="fill:none;stroke:#000000;stroke-width:1.07735097;stroke-linecap:butt;stroke-linejoin:miter;stroke-miterlimit:10;stroke-dasharray:none;stroke-opacity:1"
           id="path160"
           inkscape:connector-curvature="0" /></g><path
         d="m 153.691,58.941 c -1.617,0.204 -3.687,0.711 -5.066,1.442 l 1.488,-2.281 -0.316,-2.707 c 0.91,1.265 2.535,2.644 3.894,3.546"
         style="fill:#000000;fill-opacity:1;fill-rule:nonzero;stroke:none"
         id="path162"
         inkscape:connector-curvature="0" /><g
         id="g164"
         transform="translate(0,240)"><path
           d="m 48.414,-181.059 c 0,0 125.797,-30.132 220.629,-0.976"
           style="fill:none;stroke:#000000;stroke-width:1.07735097;stroke-linecap:butt;stroke-linejoin:miter;stroke-miterlimit:10;stroke-dasharray:none;stroke-opacity:1"
           id="path166"
           inkscape:connector-curvature="0" /></g><path
         d="m 272.145,58.941 c -1.325,-0.957 -2.891,-2.402 -3.747,-3.707 l 0.204,2.719 -1.582,2.219 c 1.41,-0.672 3.496,-1.098 5.125,-1.231"
         style="fill:#000000;fill-opacity:1;fill-rule:nonzero;stroke:none"
         id="path168"
         inkscape:connector-curvature="0" /><g
         id="g170"
         transform="translate(0,240)"><path
           d="m 63.25,-12.48 0,-14.719"
           style="fill:none;stroke:#000000;stroke-width:0.86188102;stroke-linecap:butt;stroke-linejoin:miter;stroke-miterlimit:10;stroke-dasharray:none;stroke-opacity:1"
           id="path172"
           inkscape:connector-curvature="0" /></g><path
         d="m 58.977,214.059 4.296,-7.446 4.297,7.446 -8.593,0"
         style="fill:#000000;fill-opacity:1;fill-rule:nonzero;stroke:none"
         id="path174"
         inkscape:connector-curvature="0" /><g
         id="g176"
         transform="translate(0,240)"><path
           d="m 251.07,-197.766 -0.066,-30.765 -7.742,-7.969"
           style="fill:none;stroke:#000000;stroke-width:1.07735097;stroke-linecap:butt;stroke-linejoin:miter;stroke-miterlimit:10;stroke-dasharray:none;stroke-opacity:1"
           id="path178"
           inkscape:connector-curvature="0" /></g><g
         id="g180"
         transform="translate(0,240)"><path
           d="m 46.266,-4.559 8.015,-7.968 0,-30.231 -41.082,0 0,-155.008 238.309,0"
           style="fill:none;stroke:#000000;stroke-width:1.07735097;stroke-linecap:butt;stroke-linejoin:miter;stroke-miterlimit:10;stroke-dasharray:none;stroke-opacity:1"
           id="path182"
           inkscape:connector-curvature="0" /></g><g
         id="g184"
         transform="translate(0,240)"><path
           d="m 276.555,-236.5 -8.004,7.969 0,30.23 0.023,0.531 1.86,-0.031 30.457,0 0,155.008 -229.707,-0.535 -0.133,30.766 7.742,7.964"
           style="fill:none;stroke:#000000;stroke-width:1.07735097;stroke-linecap:butt;stroke-linejoin:miter;stroke-miterlimit:10;stroke-dasharray:none;stroke-opacity:1"
           id="path186"
           inkscape:connector-curvature="0" /></g><g
         id="g188"
         transform="translate(0,240)"><path
           d="m 259.512,-207.672 0,-14.723"
           style="fill:none;stroke:#000000;stroke-width:0.86188102;stroke-linecap:butt;stroke-linejoin:miter;stroke-miterlimit:10;stroke-dasharray:none;stroke-opacity:1"
           id="path190"
           inkscape:connector-curvature="0" /></g><path
         d="m 255.234,18.863 4.301,-7.441 4.297,7.441 -8.598,0"
         style="fill:#000000;fill-opacity:1;fill-rule:nonzero;stroke:none"
         id="path192"
         inkscape:connector-curvature="0" /><g
         id="g194"
         transform="translate(0,240)"><path
           d="m 279.207,-168.918 c 0,0 32.766,31.934 3.25,86.168"
           style="fill:none;stroke:#231f20;stroke-width:1.07735097;stroke-linecap:butt;stroke-linejoin:miter;stroke-miterlimit:10;stroke-dasharray:none;stroke-opacity:1"
           id="path196"
           inkscape:connector-curvature="0" /></g><path
         d="m 279.207,162.891 c 2.469,-2.141 5.988,-4.536 8.922,-5.614 l -5.383,-0.836 -3.605,-4.089 c 0.668,3.05 0.543,7.308 0.066,10.539"
         style="fill:#231f20;fill-opacity:1;fill-rule:nonzero;stroke:none"
         id="path198"
         inkscape:connector-curvature="0" /><g
         id="g200"
         transform="translate(0,240)"><path
           d="m 159.848,-62.105 c 14.136,4.293 50.402,12.785 85.593,0.304"
           style="fill:none;stroke:#000000;stroke-width:1.07735097;stroke-linecap:butt;stroke-linejoin:miter;stroke-miterlimit:10;stroke-dasharray:none;stroke-opacity:1"
           id="path202"
           inkscape:connector-curvature="0" /></g><path
         d="m 153.691,175.828 c 3.258,-0.137 7.465,-0.816 10.336,-2.043 l -3.339,4.305 0.191,5.445 c -1.609,-2.676 -4.625,-5.687 -7.188,-7.707"
         style="fill:#000000;fill-opacity:1;fill-rule:nonzero;stroke:none"
         id="path204"
         inkscape:connector-curvature="0" /><path
         d="m 251.508,175.828 c -3.266,0.012 -7.5,-0.469 -10.426,-1.566 l 3.535,4.148 0.063,5.445 c 1.484,-2.746 4.355,-5.89 6.828,-8.027"
         style="fill:#000000;fill-opacity:1;fill-rule:nonzero;stroke:none"
         id="path206"
         inkscape:connector-curvature="0" /><g
         id="g208"
         transform="translate(0,240)"><path
           d="m 269.883,-64.172 c 0,0 -124.18,39.289 -227.824,2.277"
           style="fill:none;stroke:#000000;stroke-width:1.07735097;stroke-linecap:butt;stroke-linejoin:miter;stroke-miterlimit:10;stroke-dasharray:none;stroke-opacity:1"
           id="path210"
           inkscape:connector-curvature="0" /></g><path
         d="m 35.965,175.828 c 2.488,2.113 5.394,5.231 6.906,7.961 l 0.008,-5.449 3.488,-4.18 c -2.91,1.125 -7.14,1.649 -10.402,1.668"
         style="fill:#000000;fill-opacity:1;fill-rule:nonzero;stroke:none"
         id="path212"
         inkscape:connector-curvature="0" /><text
         transform="matrix(1,0,0,-1,50.942394,155.10236)"
         style="font-variant:normal;font-weight:normal;font-size:19.20000076px;font-family:Lato;-inkscape-font-specification:Lato-Regular;writing-mode:lr-tb;fill:#c83737;fill-opacity:1;fill-rule:nonzero;stroke:none"
         id="text214"><tspan
           x="0"
           y="0"
           id="tspan216">?</tspan><tspan
           x="0"
           y="43.356327"
           id="tspan218">?</tspan><tspan
           x="0 98.707199"
           y="90.406639"
           sodipodi:role="line"
           id="tspan220">??</tspan><tspan
           x="98.700752"
           y="43.356327"
           id="tspan222">?</tspan><tspan
           x="98.700752 199.07835"
           y="0"
           sodipodi:role="line"
           id="tspan224">??</tspan><tspan
           x="199.08411"
           y="43.356327"
           id="tspan226">?</tspan><tspan
           x="199.08411"
           y="90.406639"
           id="tspan228">?</tspan></text>
</g></g></svg>