<?xml version="1.0" encoding="UTF-8" standalone="no"?>
<!-- Created with Inkscape (http://www.inkscape.org/) -->

<svg
   xmlns:dc="http://purl.org/dc/elements/1.1/"
   xmlns:cc="http://creativecommons.org/ns#"
   xmlns:rdf="http://www.w3.org/1999/02/22-rdf-syntax-ns#"
   xmlns:svg="http://www.w3.org/2000/svg"
   xmlns="http://www.w3.org/2000/svg"
   xmlns:sodipodi="http://sodipodi.sourceforge.net/DTD/sodipodi-0.dtd"
   xmlns:inkscape="http://www.inkscape.org/namespaces/inkscape"
   id="svg2"
   version="1.1"
   inkscape:version="0.91 r"
   xml:space="preserve"
   width="629.26874"
   height="715"
   viewBox="0 0 629.26874 715"
   sodipodi:docname="modeling_process.svg"><metadata
     id="metadata8"><rdf:RDF><cc:Work
         rdf:about=""><dc:format>image/svg+xml</dc:format><dc:type
           rdf:resource="http://purl.org/dc/dcmitype/StillImage" /><dc:title></dc:title></cc:Work></rdf:RDF></metadata><defs
     id="defs6"><clipPath
       clipPathUnits="userSpaceOnUse"
       id="clipPath24"><path
         d="m 0,572 503.415,0 0,-572 L 0,0 0,572 Z"
         id="path26"
         inkscape:connector-curvature="0" /></clipPath><clipPath
       clipPathUnits="userSpaceOnUse"
       id="clipPath52"><path
         d="m 0,572 503.415,0 0,-572 L 0,0 0,572 Z"
         id="path54"
         inkscape:connector-curvature="0" /></clipPath><clipPath
       clipPathUnits="userSpaceOnUse"
       id="clipPath72"><path
         d="m 0,572 503.415,0 0,-572 L 0,0 0,572 Z"
         id="path74"
         inkscape:connector-curvature="0" /></clipPath><clipPath
       clipPathUnits="userSpaceOnUse"
       id="clipPath92"><path
         d="m 0,572 503.415,0 0,-572 L 0,0 0,572 Z"
         id="path94"
         inkscape:connector-curvature="0" /></clipPath><clipPath
       clipPathUnits="userSpaceOnUse"
       id="clipPath112"><path
         d="m 0,572 503.415,0 0,-572 L 0,0 0,572 Z"
         id="path114"
         inkscape:connector-curvature="0" /></clipPath><clipPath
       clipPathUnits="userSpaceOnUse"
       id="clipPath128"><path
         d="m 0,572 503.415,0 0,-572 L 0,0 0,572 Z"
         id="path130"
         inkscape:connector-curvature="0" /></clipPath><clipPath
       clipPathUnits="userSpaceOnUse"
       id="clipPath144"><path
         d="m 0,572 503.415,0 0,-572 L 0,0 0,572 Z"
         id="path146"
         inkscape:connector-curvature="0" /></clipPath><clipPath
       clipPathUnits="userSpaceOnUse"
       id="clipPath162"><path
         d="m 0,572 503.415,0 0,-572 L 0,0 0,572 Z"
         id="path164"
         inkscape:connector-curvature="0" /></clipPath><clipPath
       clipPathUnits="userSpaceOnUse"
       id="clipPath178"><path
         d="m 0,572 503.415,0 0,-572 L 0,0 0,572 Z"
         id="path180"
         inkscape:connector-curvature="0" /></clipPath><clipPath
       clipPathUnits="userSpaceOnUse"
       id="clipPath196"><path
         d="m 0,572 503.415,0 0,-572 L 0,0 0,572 Z"
         id="path198"
         inkscape:connector-curvature="0" /></clipPath><clipPath
       clipPathUnits="userSpaceOnUse"
       id="clipPath256"><path
         d="m 0,572 503.415,0 0,-572 L 0,0 0,572 Z"
         id="path258"
         inkscape:connector-curvature="0" /></clipPath><clipPath
       clipPathUnits="userSpaceOnUse"
       id="clipPath318"><path
         d="m 0,572 503.415,0 0,-572 L 0,0 0,572 Z"
         id="path320"
         inkscape:connector-curvature="0" /></clipPath><clipPath
       clipPathUnits="userSpaceOnUse"
       id="clipPath336"><path
         d="m 0,572 503.415,0 0,-572 L 0,0 0,572 Z"
         id="path338"
         inkscape:connector-curvature="0" /></clipPath><clipPath
       clipPathUnits="userSpaceOnUse"
       id="clipPath368"><path
         d="m 0,572 503.415,0 0,-572 L 0,0 0,572 Z"
         id="path370"
         inkscape:connector-curvature="0" /></clipPath><clipPath
       clipPathUnits="userSpaceOnUse"
       id="clipPath390"><path
         d="m 0,572 503.415,0 0,-572 L 0,0 0,572 Z"
         id="path392"
         inkscape:connector-curvature="0" /></clipPath><clipPath
       clipPathUnits="userSpaceOnUse"
       id="clipPath444"><path
         d="m 0,572 503.415,0 0,-572 L 0,0 0,572 Z"
         id="path446"
         inkscape:connector-curvature="0" /></clipPath><clipPath
       clipPathUnits="userSpaceOnUse"
       id="clipPath526"><path
         d="m 0,572 503.415,0 0,-572 L 0,0 0,572 Z"
         id="path528"
         inkscape:connector-curvature="0" /></clipPath></defs><sodipodi:namedview
     pagecolor="#ffffff"
     bordercolor="#666666"
     borderopacity="1"
     objecttolerance="10"
     gridtolerance="10"
     guidetolerance="10"
     inkscape:pageopacity="0"
     inkscape:pageshadow="2"
     inkscape:window-width="1920"
     inkscape:window-height="1030"
     id="namedview4"
     showgrid="false"
     inkscape:zoom="1"
     inkscape:cx="340.54269"
     inkscape:cy="366.20998"
     inkscape:window-x="1920"
     inkscape:window-y="0"
     inkscape:window-maximized="1"
     inkscape:current-layer="g10"
     inkscape:showpageshadow="false"
     showborder="true" /><g
     id="g10"
     inkscape:groupmode="layer"
     inkscape:label="Fig10"
     transform="matrix(1.25,0,0,-1.25,0,715)"><g
       id="g12"
       transform="translate(2.0728,458.646)"><path
         d="M 0,0 1,0"
         style="fill:none;stroke:#bcbec0;stroke-width:0.75;stroke-linecap:butt;stroke-linejoin:miter;stroke-miterlimit:10;stroke-dasharray:none;stroke-opacity:1"
         id="path14"
         inkscape:connector-curvature="0" /></g><g
       id="g16"
       transform="translate(5.0781,458.646)"><path
         d="M 0,0 496.333,0"
         style="fill:none;stroke:#bcbec0;stroke-width:0.75;stroke-linecap:butt;stroke-linejoin:miter;stroke-miterlimit:10;stroke-dasharray:2.005, 2.005;stroke-dashoffset:0;stroke-opacity:1"
         id="path18"
         inkscape:connector-curvature="0" /></g><g
       id="g20"><g
         id="g22"
         clip-path="url(#clipPath24)"><g
           id="g28"
           transform="translate(502.4146,458.646)"><path
             d="M 0,0 1,0"
             style="fill:none;stroke:#bcbec0;stroke-width:0.75;stroke-linecap:butt;stroke-linejoin:miter;stroke-miterlimit:10;stroke-dasharray:none;stroke-opacity:1"
             id="path30"
             inkscape:connector-curvature="0" /></g><g
           id="g32"
           transform="translate(1.0366,515.1602)"><path
             d="M 0,0 501.342,0"
             style="fill:none;stroke:#bcbec0;stroke-width:1;stroke-linecap:butt;stroke-linejoin:miter;stroke-miterlimit:10;stroke-dasharray:none;stroke-opacity:1"
             id="path34"
             inkscape:connector-curvature="0" /></g><g
           id="g36"
           transform="translate(1.0366,389.9995)"><path
             d="M 0,0 1,0"
             style="fill:none;stroke:#bcbec0;stroke-width:0.75;stroke-linecap:butt;stroke-linejoin:miter;stroke-miterlimit:10;stroke-dasharray:none;stroke-opacity:1"
             id="path38"
             inkscape:connector-curvature="0" /></g></g></g><g
       id="g40"
       transform="translate(4.042,389.9995)"><path
         d="M 0,0 496.333,0"
         style="fill:none;stroke:#bcbec0;stroke-width:0.75;stroke-linecap:butt;stroke-linejoin:miter;stroke-miterlimit:10;stroke-dasharray:2.005, 2.005;stroke-dashoffset:0;stroke-opacity:1"
         id="path42"
         inkscape:connector-curvature="0" /></g><g
       id="g44"
       transform="translate(501.3784,389.9995)"><path
         d="M 0,0 1,0"
         style="fill:none;stroke:#bcbec0;stroke-width:0.75;stroke-linecap:butt;stroke-linejoin:miter;stroke-miterlimit:10;stroke-dasharray:none;stroke-opacity:1"
         id="path46"
         inkscape:connector-curvature="0" /></g><g
       id="g48"><g
         id="g50"
         clip-path="url(#clipPath52)"><g
           id="g56"
           transform="translate(1.0366,311.333)"><path
             d="M 0,0 1,0"
             style="fill:none;stroke:#bcbec0;stroke-width:0.75;stroke-linecap:butt;stroke-linejoin:miter;stroke-miterlimit:10;stroke-dasharray:none;stroke-opacity:1"
             id="path58"
             inkscape:connector-curvature="0" /></g></g></g><g
       id="g60"
       transform="translate(4.042,311.333)"><path
         d="M 0,0 496.333,0"
         style="fill:none;stroke:#bcbec0;stroke-width:0.75;stroke-linecap:butt;stroke-linejoin:miter;stroke-miterlimit:10;stroke-dasharray:2.005, 2.005;stroke-dashoffset:0;stroke-opacity:1"
         id="path62"
         inkscape:connector-curvature="0" /></g><g
       id="g64"
       transform="translate(501.3784,311.333)"><path
         d="M 0,0 1,0"
         style="fill:none;stroke:#bcbec0;stroke-width:0.75;stroke-linecap:butt;stroke-linejoin:miter;stroke-miterlimit:10;stroke-dasharray:none;stroke-opacity:1"
         id="path66"
         inkscape:connector-curvature="0" /></g><g
       id="g68"><g
         id="g70"
         clip-path="url(#clipPath72)"><g
           id="g76"
           transform="translate(1.0366,234.666)"><path
             d="M 0,0 1,0"
             style="fill:none;stroke:#bcbec0;stroke-width:0.75;stroke-linecap:butt;stroke-linejoin:miter;stroke-miterlimit:10;stroke-dasharray:none;stroke-opacity:1"
             id="path78"
             inkscape:connector-curvature="0" /></g></g></g><g
       id="g80"
       transform="translate(4.042,234.666)"><path
         d="M 0,0 496.333,0"
         style="fill:none;stroke:#bcbec0;stroke-width:0.75;stroke-linecap:butt;stroke-linejoin:miter;stroke-miterlimit:10;stroke-dasharray:2.005, 2.005;stroke-dashoffset:0;stroke-opacity:1"
         id="path82"
         inkscape:connector-curvature="0" /></g><g
       id="g84"
       transform="translate(501.3784,234.666)"><path
         d="M 0,0 1,0"
         style="fill:none;stroke:#bcbec0;stroke-width:0.75;stroke-linecap:butt;stroke-linejoin:miter;stroke-miterlimit:10;stroke-dasharray:none;stroke-opacity:1"
         id="path86"
         inkscape:connector-curvature="0" /></g><g
       id="g88"><g
         id="g90"
         clip-path="url(#clipPath92)"><g
           id="g96"
           transform="translate(1.0366,171.8037)"><path
             d="M 0,0 1,0"
             style="fill:none;stroke:#bcbec0;stroke-width:0.75;stroke-linecap:butt;stroke-linejoin:miter;stroke-miterlimit:10;stroke-dasharray:none;stroke-opacity:1"
             id="path98"
             inkscape:connector-curvature="0" /></g></g></g><g
       id="g100"
       transform="translate(4.042,171.8037)"><path
         d="M 0,0 496.333,0"
         style="fill:none;stroke:#bcbec0;stroke-width:0.75;stroke-linecap:butt;stroke-linejoin:miter;stroke-miterlimit:10;stroke-dasharray:2.005, 2.005;stroke-dashoffset:0;stroke-opacity:1"
         id="path102"
         inkscape:connector-curvature="0" /></g><g
       id="g104"
       transform="translate(501.3784,171.8037)"><path
         d="M 0,0 1,0"
         style="fill:none;stroke:#bcbec0;stroke-width:0.75;stroke-linecap:butt;stroke-linejoin:miter;stroke-miterlimit:10;stroke-dasharray:none;stroke-opacity:1"
         id="path106"
         inkscape:connector-curvature="0" /></g><g
       id="g108"><g
         id="g110"
         clip-path="url(#clipPath112)"><g
           id="g116"
           transform="translate(145.0386,489.8882)"><path
             d="m 0,0 c 0,-5.068 -5.373,-9.178 -12,-9.178 l -90.362,0 c -6.627,0 -12,4.11 -12,9.178 l 0,9.308 c 0,5.069 5.373,9.178 12,9.178 l 90.362,0 c 6.627,0 12,-4.109 12,-9.178 L 0,0 Z"
             style="fill:none;stroke:#000000;stroke-width:0.75;stroke-linecap:butt;stroke-linejoin:miter;stroke-miterlimit:10;stroke-dasharray:none;stroke-opacity:1"
             id="path118"
             inkscape:connector-curvature="0" /></g></g></g><g
       id="g124"><g
         id="g126"
         clip-path="url(#clipPath128)"><g
           id="g132"
           transform="translate(145.0391,418.0952)"><path
             d="m 0,0 c 0,-5.068 -5.372,-9.178 -12,-9.178 l -90.362,0 c -6.628,0 -12,4.11 -12,9.178 l 0,9.309 c 0,5.068 5.372,9.177 12,9.177 l 90.362,0 c 6.628,0 12,-4.109 12,-9.177 L 0,0 Z"
             style="fill:none;stroke:#000000;stroke-width:0.75;stroke-linecap:butt;stroke-linejoin:miter;stroke-miterlimit:10;stroke-dasharray:none;stroke-opacity:1"
             id="path134"
             inkscape:connector-curvature="0" /></g></g></g><g
       id="g140"><g
         id="g142"
         clip-path="url(#clipPath144)"><g
           id="g148"
           transform="translate(146.1323,346.4863)"><path
             d="m 0,0 c 0,-5.068 -5.371,-9.178 -12,-9.178 l -90.362,0 c -6.627,0 -12,4.11 -12,9.178 l 0,9.309 c 0,5.069 5.373,9.177 12,9.177 l 90.362,0 c 6.629,0 12,-4.108 12,-9.177 L 0,0 Z"
             style="fill:none;stroke:#000000;stroke-width:0.75;stroke-linecap:butt;stroke-linejoin:miter;stroke-miterlimit:10;stroke-dasharray:none;stroke-opacity:1"
             id="path150"
             inkscape:connector-curvature="0" /></g></g></g><g
       id="g158"><g
         id="g160"
         clip-path="url(#clipPath162)"><g
           id="g166"
           transform="translate(145.0396,274.2383)"><path
             d="m 0,0 c 0,-5.068 -5.372,-9.178 -12,-9.178 l -90.362,0 c -6.628,0 -12,4.11 -12,9.178 l 0,9.309 c 0,5.07 5.372,9.177 12,9.177 l 90.362,0 c 6.628,0 12,-4.107 12,-9.177 L 0,0 Z"
             style="fill:none;stroke:#000000;stroke-width:0.75;stroke-linecap:butt;stroke-linejoin:miter;stroke-miterlimit:10;stroke-dasharray:none;stroke-opacity:1"
             id="path168"
             inkscape:connector-curvature="0" /></g></g></g><text
       transform="matrix(1,0,0,-1,45.8408,275.6919)"
       style="font-variant:normal;font-weight:normal;font-stretch:normal;font-size:12px;font-family:Arial;-inkscape-font-specification:ArialMT;writing-mode:lr-tb;fill:#000000;fill-opacity:1;fill-rule:nonzero;stroke:none"
       id="text170"><tspan
         x="0 8.0039997 14.676 18.672001 25.344 35.34 42.012001 45.348 49.344002 52.007999 58.007999 64.68 68.015999 70.68 77.351997"
         y="0"
         sodipodi:role="line"
         id="tspan172">Paramétrisation</tspan></text>
<g
       id="g174"><g
         id="g176"
         clip-path="url(#clipPath178)"><g
           id="g182"
           transform="translate(145.0396,131.2529)"><path
             d="m 0,0 c 0,-5.068 -5.372,-9.178 -12,-9.178 l -90.362,0 c -6.628,0 -12,4.11 -12,9.178 l 0,9.309 c 0,5.07 5.372,9.177 12,9.177 l 90.362,0 c 6.628,0 12,-4.107 12,-9.177 L 0,0 Z"
             style="fill:none;stroke:#000000;stroke-width:0.75;stroke-linecap:butt;stroke-linejoin:miter;stroke-miterlimit:10;stroke-dasharray:none;stroke-opacity:1"
             id="path184"
             inkscape:connector-curvature="0" /></g></g></g><text
       transform="matrix(1,0,0,-1,31.8286,138.5747)"
       style="font-variant:normal;font-weight:normal;font-stretch:normal;font-size:8px;font-family:Arial;-inkscape-font-specification:ArialMT;writing-mode:lr-tb;fill:#000000;fill-opacity:1;fill-rule:nonzero;stroke:none"
       id="text186"><tspan
         x="0 5.776 10.224 12 13.776 18.224001 20.888 25.336 27.559999 29.336 33.784 38.231998 40.456001 42.68 47.127998 51.576 56.023998 57.799999 61.799999 65.800003 70.248001 72.487999 76.487999 80.935997 85.384003 89.384003 91.160004 95.608002 97.384003 99.160004 100.936 103.16 107.616 109.84"
         y="0"
         sodipodi:role="line"
         id="tspan188">Calibration, analyse sensibilité, </tspan><tspan
         x="17.792 21.792 26.24 28.903999 30.68 32.903999 34.68 38.68 43.127998 45.352001 47.127998 51.576 56.023998 58.248001 60.472 64.472 68.919998 70.695999 72.472 76.919998 81.367996 83.592003 85.367996 89.816002"
         y="9.6000004"
         sodipodi:role="line"
         id="tspan190">vérification, validation</tspan></text>
<g
       id="g192"><g
         id="g194"
         clip-path="url(#clipPath196)"><g
           id="g200"
           transform="translate(87.8574,480.7104)"><path
             d="M 0,0 0,-38.747"
             style="fill:none;stroke:#231f20;stroke-width:0.75;stroke-linecap:butt;stroke-linejoin:miter;stroke-miterlimit:10;stroke-dasharray:none;stroke-opacity:1"
             id="path202"
             inkscape:connector-curvature="0" /></g><g
           id="g204"
           transform="translate(84.1392,443.0581)"><path
             d="M 0,0 3.739,-6.477 7.479,0 0,0 Z"
             style="fill:#231f20;fill-opacity:1;fill-rule:nonzero;stroke:none"
             id="path206"
             inkscape:connector-curvature="0" /></g><g
           id="g208"
           transform="translate(87.8574,408.9175)"><path
             d="M 0,0 0,-38.747"
             style="fill:none;stroke:#231f20;stroke-width:0.75;stroke-linecap:butt;stroke-linejoin:miter;stroke-miterlimit:10;stroke-dasharray:none;stroke-opacity:1"
             id="path210"
             inkscape:connector-curvature="0" /></g><g
           id="g212"
           transform="translate(84.1392,371.2651)"><path
             d="M 0,0 3.739,-6.477 7.479,0 0,0 Z"
             style="fill:#231f20;fill-opacity:1;fill-rule:nonzero;stroke:none"
             id="path214"
             inkscape:connector-curvature="0" /></g><g
           id="g216"
           transform="translate(87.8574,336.8535)"><path
             d="M 0,0 0,-38.747"
             style="fill:none;stroke:#231f20;stroke-width:0.75;stroke-linecap:butt;stroke-linejoin:miter;stroke-miterlimit:10;stroke-dasharray:none;stroke-opacity:1"
             id="path218"
             inkscape:connector-curvature="0" /></g><g
           id="g220"
           transform="translate(84.1392,299.2012)"><path
             d="M 0,0 3.739,-6.477 7.479,0 0,0 Z"
             style="fill:#231f20;fill-opacity:1;fill-rule:nonzero;stroke:none"
             id="path222"
             inkscape:connector-curvature="0" /></g><g
           id="g224"
           transform="translate(87.8574,265.0605)"><path
             d="M 0,0 0,-38.747"
             style="fill:none;stroke:#231f20;stroke-width:0.75;stroke-linecap:butt;stroke-linejoin:miter;stroke-miterlimit:10;stroke-dasharray:none;stroke-opacity:1"
             id="path226"
             inkscape:connector-curvature="0" /></g><g
           id="g228"
           transform="translate(84.1392,227.4082)"><path
             d="M 0,0 3.739,-6.477 7.479,0 0,0 Z"
             style="fill:#231f20;fill-opacity:1;fill-rule:nonzero;stroke:none"
             id="path230"
             inkscape:connector-curvature="0" /></g><g
           id="g232"
           transform="translate(95.7964,80.501)"><path
             d="M 0,0 4.243,-4.242 0,-8.484"
             style="fill:none;stroke:#231f20;stroke-width:0.75;stroke-linecap:butt;stroke-linejoin:miter;stroke-miterlimit:10;stroke-dasharray:none;stroke-opacity:1"
             id="path234"
             inkscape:connector-curvature="0" /></g><g
           id="g236"
           transform="translate(92.0991,68.3193)"><path
             d="M 0,0 -4.243,-4.242 -8.485,0"
             style="fill:none;stroke:#231f20;stroke-width:0.75;stroke-linecap:butt;stroke-linejoin:miter;stroke-miterlimit:10;stroke-dasharray:none;stroke-opacity:1"
             id="path238"
             inkscape:connector-curvature="0" /></g><g
           id="g240"
           transform="translate(79.9175,72.0166)"><path
             d="M 0,0 -4.243,4.242 0,8.485"
             style="fill:none;stroke:#231f20;stroke-width:0.75;stroke-linecap:butt;stroke-linejoin:miter;stroke-miterlimit:10;stroke-dasharray:none;stroke-opacity:1"
             id="path242"
             inkscape:connector-curvature="0" /></g><g
           id="g244"
           transform="translate(83.6138,84.1982)"><path
             d="M 0,0 4.243,4.243 8.485,0.001"
             style="fill:none;stroke:#231f20;stroke-width:0.75;stroke-linecap:butt;stroke-linejoin:miter;stroke-miterlimit:10;stroke-dasharray:none;stroke-opacity:1"
             id="path246"
             inkscape:connector-curvature="0" /></g></g></g><text
       transform="matrix(1,0,0,-1,79.8535,73.125)"
       style="font-style:italic;font-variant:normal;font-weight:normal;font-stretch:normal;font-size:8px;font-family:Arial;-inkscape-font-specification:Arial-ItalicMT;writing-mode:lr-tb;fill:#000000;fill-opacity:1;fill-rule:nonzero;stroke:none"
       id="text248"><tspan
         x="0 6.224 11.56"
         y="0"
         sodipodi:role="line"
         id="tspan250">OK?</tspan></text>
<g
       id="g252"><g
         id="g254"
         clip-path="url(#clipPath256)"><g
           id="g260"
           transform="translate(87.8584,122.0752)"><path
             d="M 0,0 0,-28.252"
             style="fill:none;stroke:#231f20;stroke-width:0.75;stroke-linecap:butt;stroke-linejoin:miter;stroke-miterlimit:10;stroke-dasharray:none;stroke-opacity:1"
             id="path262"
             inkscape:connector-curvature="0" /></g><g
           id="g264"
           transform="translate(84.1401,94.918)"><path
             d="M 0,0 3.739,-6.477 7.479,0 0,0 Z"
             style="fill:#231f20;fill-opacity:1;fill-rule:nonzero;stroke:none"
             id="path266"
             inkscape:connector-curvature="0" /></g><g
           id="g268"
           transform="translate(75.6758,76.2588)"><path
             d="m 0,0 -62.93,0 0,346.889 12.549,0"
             style="fill:none;stroke:#231f20;stroke-width:0.75;stroke-linecap:butt;stroke-linejoin:miter;stroke-miterlimit:10;stroke-dasharray:none;stroke-opacity:1"
             id="path270"
             inkscape:connector-curvature="0" /></g><g
           id="g272"
           transform="translate(24.2002,419.4297)"><path
             d="M 0,0 6.477,3.739 0,7.479 0,0 Z"
             style="fill:#231f20;fill-opacity:1;fill-rule:nonzero;stroke:none"
             id="path274"
             inkscape:connector-curvature="0" /></g><g
           id="g276"
           transform="translate(12.7461,350.9561)"><path
             d="M 0,0 12.548,0"
             style="fill:none;stroke:#231f20;stroke-width:0.75;stroke-linecap:butt;stroke-linejoin:miter;stroke-miterlimit:10;stroke-dasharray:none;stroke-opacity:1"
             id="path278"
             inkscape:connector-curvature="0" /></g><g
           id="g280"
           transform="translate(24.2002,347.2373)"><path
             d="M 0,0 6.477,3.739 0,7.479 0,0 Z"
             style="fill:#231f20;fill-opacity:1;fill-rule:nonzero;stroke:none"
             id="path282"
             inkscape:connector-curvature="0" /></g><g
           id="g284"
           transform="translate(12.7461,279.6279)"><path
             d="M 0,0 12.548,0"
             style="fill:none;stroke:#231f20;stroke-width:0.75;stroke-linecap:butt;stroke-linejoin:miter;stroke-miterlimit:10;stroke-dasharray:none;stroke-opacity:1"
             id="path286"
             inkscape:connector-curvature="0" /></g><g
           id="g288"
           transform="translate(24.2002,275.9092)"><path
             d="M 0,0 6.477,3.739 0,7.479 0,0 Z"
             style="fill:#231f20;fill-opacity:1;fill-rule:nonzero;stroke:none"
             id="path290"
             inkscape:connector-curvature="0" /></g></g></g><text
       transform="matrix(1,0,0,-1,154.8247,436.9453)"
       style="font-variant:normal;font-weight:normal;font-stretch:normal;font-size:8px;font-family:Arial;-inkscape-font-specification:ArialMT;writing-mode:lr-tb;fill:#000000;fill-opacity:1;fill-rule:nonzero;stroke:none"
       id="text306"><tspan
         x="0 5.776 10.224 12.448 16.896 19.559999 26.224001 28 32.448002 36.896 39.560001 49.391998 51.167999 55.616001 59.616001 69.440002 73.440002 77.888 84.552002 89 93.447998 97.447998 101.896 106.344 108.568 113.016 117.016 126.848 131.29601 135.744"
         y="0"
         sodipodi:role="line"
         id="tspan308">Déterminer les composantes du </tspan><tspan
         x="0 6.664 11.112 15.56 20.007999 21.784 26.24 29.912001 34.360001 36.584 40.256001 44.703999 49.152 51.375999 53.152 57.599998 59.375999 62.040001 65.711998 67.487999 71.935997 75.935997 79.608002 82.272003 86.720001 88.496002 92.944 95.167999 96.944 101.392 105.84 109.84 113.52 117.968 122.416 124.64 127.304 131.752 135.752"
         y="9.6000004"
         sodipodi:role="line"
         id="tspan310">modèle et définir les relations entres </tspan><tspan
         x="0 4.448 6.224 8 12.448 16.448"
         y="19.200001"
         sodipodi:role="line"
         id="tspan312">elles.</tspan></text>
<g
       id="g314"><g
         id="g316"
         clip-path="url(#clipPath318)"><g
           id="g322"
           transform="translate(145.0391,203.0459)"><path
             d="m 0,0 c 0,-5.068 -5.373,-9.178 -12,-9.178 l -90.363,0 c -6.627,0 -12,4.11 -12,9.178 l 0,9.309 c 0,5.07 5.373,9.177 12,9.177 l 90.363,0 c 6.627,0 12,-4.107 12,-9.177 L 0,0 Z"
             style="fill:none;stroke:#000000;stroke-width:0.75;stroke-linecap:butt;stroke-linejoin:miter;stroke-miterlimit:10;stroke-dasharray:none;stroke-opacity:1"
             id="path324"
             inkscape:connector-curvature="0" /></g></g></g><text
       transform="matrix(1,0,0,-1,66.1748,210.4985)"
       style="font-variant:normal;font-weight:normal;font-stretch:normal;font-size:12px;font-family:Arial;-inkscape-font-specification:ArialMT;writing-mode:lr-tb;fill:#000000;fill-opacity:1;fill-rule:nonzero;stroke:none"
       id="text326"><tspan
         x="0 8.0039997 14.676 17.34 24.011999 27.348 30.011999 36.683998"
         y="0"
         sodipodi:role="line"
         id="tspan328">Solution</tspan><tspan
         x="-16.344 -6.348 0.324 3.6600001 10.332 17.004 27 33.672001 37.007999 39.672001 46.344002 53.015999"
         y="12"
         sodipodi:role="line"
         id="tspan330">mathématique</tspan></text>
<g
       id="g332"><g
         id="g334"
         clip-path="url(#clipPath336)"><g
           id="g340"
           transform="translate(87.8584,193.8682)"><path
             d="M 0,0 0,-38.747"
             style="fill:none;stroke:#231f20;stroke-width:0.75;stroke-linecap:butt;stroke-linejoin:miter;stroke-miterlimit:10;stroke-dasharray:none;stroke-opacity:1"
             id="path342"
             inkscape:connector-curvature="0" /></g><g
           id="g344"
           transform="translate(84.1396,156.2158)"><path
             d="M 0,0 3.738,-6.477 7.479,0 0,0 Z"
             style="fill:#231f20;fill-opacity:1;fill-rule:nonzero;stroke:none"
             id="path346"
             inkscape:connector-curvature="0" /></g></g></g><text
       transform="matrix(1,0,0,-1,154.8247,376.3516)"
       style="font-variant:normal;font-weight:normal;font-stretch:normal;font-size:8px;font-family:Arial;-inkscape-font-specification:ArialMT;writing-mode:lr-tb;fill:#000000;fill-opacity:1;fill-rule:nonzero;stroke:none"
       id="text348"><tspan
         x="0 5.336 9.3360004 13.784 16.448 18.224001 24.888 29.336 32 35.928001 37.703999 42.152 46.080002 52.743999 57.192001 61.639999 66.087997 67.863998 72.311996 76.239998 80.239998 84.688004 89.136002 93.136002 97.584 102.032 104.256 108.704 113.152 114.928 118.856 122.856 127.304 131.752 135.752"
         y="0"
         sodipodi:role="line"
         id="tspan350">Exprimer le modèle conceptuel sous </tspan><tspan
         x="0 2.224 6.6719999 9.3360004 16 20.448 23.143999 29.808001 34.256001 36.48 40.928001 45.375999 52.040001 56.487999 58.712002 60.487999 64.935997 69.384003 73.832001 76.536003 79.199997 83.199997 87.648003 92.096001 96.096001 100.544 104.992 107.216 109.92 114.368 117.064 118.84 120.616 125.064 126.84 131.28799 135.73599"
         y="9.6000004"
         sodipodi:role="line"
         id="tspan352">forme mathématique (souvent à l’aide </tspan><tspan
         x="0 4.448 6.224 10.672 15.12 19.568001 24.016001 26.24 28.016001 32.464001 36.911999 40.911999 43.136002 47.584 49.360001 51.448002 53.672001 58.119999 60.784 65.232002 69.68 71.903999 73.68 78.127998 79.903999 81.68 86.127998 90.127998 92.792"
         y="19.200001"
         sodipodi:role="line"
         id="tspan354">d’équations différentielles).</tspan><tspan
         x="0 5.776 10.224 12.448 16.896 19.559999 26.224001 28 32.448002 36.896 39.560001 43.271999 45.048 49.495998 53.200001 57.200001 61.647999 63.424 67.872002 72.32 74.984001 78.688004 83.136002 87.584 91.584 95.288002 99.736 104.184 106.848 111.296 117.96 122.408 124.632 127.296 131.744 135.744"
         y="85.984001"
         sodipodi:role="line"
         id="tspan356">Déterminer la valeur des paramètres </tspan><tspan
         x="0 4.448 8.8959999 10.76 17.424 21.872 26.32 30.768 32.543999 36.992001 39.216 41.080002 46.416 50.863998 55.312 59.312 63.759998 68.208 70.431999 72.295998 76.744003 79.407997 83.856003 87.856003 92.304001 96.751999 98.528 101.192 103.056 107.504 111.952 113.816 116.04 117.896 120.56 125.008 127.672 129.528 131.304 135.752"
         y="95.584"
         sodipodi:role="line"
         id="tspan358">du modèle. Peuvent provenir de : (1) la </tspan><tspan
         x="0 1.776 3.552 5.776 8 12.448 15.112 19.559999 21.784 26.232 28.896 33.344002 35.568001 40.352001 43.015999 47.464001 50.127998 54.911999 59.360001 61.136002 65.584 69.584 74.031998 78.480003 81.143997 82.919998 89.584 94.031998 98.480003 100.704 105.152 107.376 109.152 113.6 118.048 122.048 126.848 131.29601 135.744"
         y="105.184"
         sodipodi:role="line"
         id="tspan360">littérature, (2) d’expérimentations ou </tspan><tspan
         x="0 2.664 7.112 9.776 12 16.448 20.896 23.559999 25.784 30.232 34.231998 36.456001 38.231998 44.896 49.344002 51.568001 53.344002 57.792 62.240002 64.463997 67.127998 71.127998 75.575996 77.351997 79.127998 83.575996 86.239998 90.688004 92.912003 94.688004 99.136002 103.584 106.248"
         y="114.784"
         sodipodi:role="line"
         id="tspan362">(3) par estimation (calibration).</tspan></text>
<g
       id="g364"><g
         id="g366"
         clip-path="url(#clipPath368)"><g
           id="g372"
           transform="translate(145.0391,18.1445)"><path
             d="m 0,0 c 0,-5.068 -5.373,-9.178 -12,-9.178 l -90.363,0 c -6.627,0 -12,4.11 -12,9.178 l 0,9.309 c 0,5.07 5.373,9.177 12,9.177 l 90.363,0 c 6.627,0 12,-4.107 12,-9.177 L 0,0 Z"
             style="fill:none;stroke:#000000;stroke-width:0.75;stroke-linecap:butt;stroke-linejoin:miter;stroke-miterlimit:10;stroke-dasharray:none;stroke-opacity:1"
             id="path374"
             inkscape:connector-curvature="0" /></g></g></g><text
       transform="matrix(1,0,0,-1,61.1763,19.5977)"
       style="font-variant:normal;font-weight:normal;font-stretch:normal;font-size:12px;font-family:Arial;-inkscape-font-specification:ArialMT;writing-mode:lr-tb;fill:#000000;fill-opacity:1;fill-rule:nonzero;stroke:none"
       id="text376"><tspan
         x="0 8.0039997 12 18.672001 25.344 28.007999 34.007999 37.344002 40.007999 46.68"
         y="0"
         sodipodi:role="line"
         id="tspan378">Prédiction</tspan></text>
<text
       transform="matrix(1,0,0,-1,154.8247,502.082)"
       style="font-variant:normal;font-weight:normal;font-stretch:normal;font-size:8px;font-family:Arial;-inkscape-font-specification:ArialMT;writing-mode:lr-tb;fill:#000000;fill-opacity:1;fill-rule:nonzero;stroke:none"
       id="text380"><tspan
         x="0 5.776 10.224 12.448 14.224 18.672001 20.448 23.112 26.104 27.879999 32.327999 35.312 39.759998 42.424 46.872002 51.32 53.096001 57.543999 64.208 68.655998 71.648003 76.096001 78.32 81.304001 83.080002 87.528 91.528 94.512001 98.959999 103.408 105.184 109.632 113.632 115.856 117.632 119.856 123.856 126.848 131.29601 135.744"
         y="0"
         sodipodi:role="line"
         id="tspan382">Définir le problème et les objectifs de </tspan><tspan
         x="0 1.776 6.224 8.448 15.112 19.559999 24.007999 28.455999 30.232 32.007999 36.007999 40.456001 42.68 44.456001 48.903999 53.352001"
         y="9.6000004"
         sodipodi:role="line"
         id="tspan384">la modélisation.</tspan></text>
<g
       id="g386"><g
         id="g388"
         clip-path="url(#clipPath390)"><g
           id="g394"
           transform="translate(154.8247,332.7568)"><path
             d="M 0,0 10.628,0"
             style="fill:none;stroke:#000000;stroke-width:0.59399998;stroke-linecap:butt;stroke-linejoin:miter;stroke-miterlimit:10;stroke-dasharray:none;stroke-opacity:1"
             id="path396"
             inkscape:connector-curvature="0" /></g></g></g><text
       transform="matrix(1,0,0,-1,155.3296,335.7925)"
       style="font-style:italic;font-variant:normal;font-weight:normal;font-stretch:normal;font-size:8.00189972px;font-family:'Times New Roman';-inkscape-font-specification:TimesNewRomanPS-ItalicMT;writing-mode:lr-tb;fill:#231f20;fill-opacity:1;fill-rule:nonzero;stroke:none"
       id="text398"><tspan
         x="0 4.0009499"
         y="0"
         sodipodi:role="line"
         id="tspan400">dC</tspan><tspan
         x="1.5603704 5.5613203"
         y="11.290681"
         sodipodi:role="line"
         id="tspan402">dt</tspan><tspan
         x="18.252335 24.029705 28.030655 30.255184 34.256134 44.882656 49.755814 53.292652 56.389389 58.597912 62.134754"
         y="5.0411968"
         sodipodi:role="line"
         id="tspan404">GainsPertes</tspan></text>
<text
       transform="matrix(1,0,0,-1,167.58051,330.7513)"
       style="font-variant:normal;font-weight:normal;font-stretch:normal;font-size:8.00189972px;font-family:Symbol;-inkscape-font-specification:SymbolMT;writing-mode:lr-tb;fill:#231f20;fill-opacity:1;fill-rule:nonzero;stroke:none"
       id="text406"><tspan
         x="0 26.630323"
         y="0"
         sodipodi:role="line"
         id="tspan408">=−</tspan></text>
<text
       transform="matrix(1,0,0,-1,154.8247,215.3145)"
       style="font-variant:normal;font-weight:normal;font-stretch:normal;font-size:8px;font-family:Arial;-inkscape-font-specification:ArialMT;writing-mode:lr-tb;fill:#000000;fill-opacity:1;fill-rule:nonzero;stroke:none"
       id="text410"><tspan
         x="0 5.336 9.7840004 11.56 16.007999 18.232 20.007999 24.455999 28.903999 36.952 41.400002 45.848 52.512001 56.959999 59.624001 61.400002 65.848 70.295998 74.744003 82.792 87.239998 91.688004 95.688004 103.728 107.728 112.176 114.84 116.616 121.064 125.512 127.288 131.73599 135.73599"
         y="0"
         sodipodi:role="line"
         id="tspan412">Solution numérique des variables </tspan><tspan
         x="0 4.448 6.224 8 12.448 14.672 19.120001 21.784 26.232 28.455999 32.456001 41.383999 45.832001 50.279999 59.208 61.431999 65.879997 70.328003 74.328003 76.552002 78.328003 82.776001 87.223999 96.152 100.6 105.048 113.968 116.192 120.64 127.304 131.752 135.752"
         y="9.6000004"
         sodipodi:role="line"
         id="tspan414">d’intérêts en fonction du temps </tspan><tspan
         x="0 2.664 7.112 11.56 18.224001 22.672001 24.448 28.896 33.344002 35.568001 40.015999 41.792 43.568001 48.015999 50.240002 54.688 59.136002 61.799999 66.248001 68.472 70.248001 74.695999 79.143997 81.367996 85.816002 90.264 92.487999 99.152 103.6 108.048 112.496 114.272 118.72 121.384"
         y="19.200001"
         sodipodi:role="line"
         id="tspan416">(domaine d’intégration du modèle).</tspan><tspan
         x="0 5.776 10.224 16.888 21.336 25.784 28.448 32.896 35.560001 38.967999 40.743999 45.192001 49.192001 52.599998 55.264 59.712002 63.712002 68.160004 69.935997 72.160004 76.608002 78.832001 82.832001 86.239998 90.688004 95.136002 98.543999 100.32 104.768 108.176 112.176 116.624 118.4 122.848 125.072 126.848 131.29601 135.744"
         y="63.919998"
         sodipodi:role="line"
         id="tspan418">Comparer les résultats de la solution </tspan><tspan
         x="0 6.664 11.112 13.336 17.784 22.232 28.896 33.344002 35.568001 37.344002 41.792 46.240002 50.688 53.992001 58.439999 62.439999 66.888 70.888 74.192001 78.639999 83.087997 87.087997 90.391998 94.839996 99.288002 103.288 107.736 110.4 114.4 118.848 121.072 122.848 127.296 131.744 135.752"
         y="73.519997"
         sodipodi:role="line"
         id="tspan420">mathématique avec des observations </tspan><tspan
         x="0 4.448 8.8959999 12.928 17.375999 21.823999 25.823999 29.856001 34.304001 38.751999 43.200001 47.647999 52.096001 56.543999 60.543999 64.575996 69.024002 73.024002 77.472 81.919998 84.584 86.360001 93.024002 97.472 101.92 104.144 108.592 110.368 114.816 118.816 122.856 127.304 129.528 131.304 135.752"
         y="83.120003"
         sodipodi:role="line"
         id="tspan422">ou des données expérimentales afin </tspan><tspan
         x="0 4.448 8.8959999 13.544 17.544001 21.992001 24.656 26.431999 28.656 30.431999 34.880001 37.543999 42.192001 43.967999 45.743999 50.192001 54.192001 58.639999 62.639999 64.863998 66.639999 68.863998 73.311996 77.760002 82.208 86.863998 91.311996 95.760002 100.408 107.072 111.52 115.968 120.416 122.192 126.64 131.29601 135.744"
         y="92.720001"
         sodipodi:role="line"
         id="tspan424">de vérifier l’exactitude du modèle à </tspan><tspan
         x="0 2.664 7.112 11.56 14.224 18.672001 22.672001 27.120001 31.568001 33.792 38.240002 40.903999 43.127998 44.903999 49.352001 51.576 55.576 59.576 63.576 65.800003 70.248001 76.912003 81.360001 83.584 90.248001 94.695999 99.143997 103.592 105.368 107.144 111.144 115.592"
         y="102.32"
         sodipodi:role="line"
         id="tspan426">représenter le système modélisé.</tspan><tspan
         x="0 5.336 9.7840004 12.448 16.896 20.896 25.816 30.264 34.264 38.712002 40.487999 43.152 48.071999 52.071999 56.52 58.296001 60.071999 64.519997 68.968002 73.888 75.664001 80.112 85.031998 91.695999 96.143997 100.592 105.04 106.816 111.264 113.488 118.408 122.856 127.304 131.752 135.752"
         y="156.968"
         sodipodi:role="line"
         id="tspan428">Après avoir validé le modèle, nous </tspan><tspan
         x="0 4.448 8.8959999 13.344 17.344 21.792 26.24 30.24 38.167999 39.944 41.720001 46.167999 48.391998 50.167999 51.944 53.720001 57.720001 62.167999 64.832001 72.760002 77.208 81.655998 86.103996 88.767998 96.695999 101.144 103.808 108.256 112.704 114.48 117.144 121.592 129.52 131.29601 135.744"
         y="166.56799"
         sodipodi:role="line"
         id="tspan430">pouvons l’utiliser pour prédire le </tspan><tspan
         x="0 4 8.448 15.112 19.559999 24.007999 26.672001 28.896 33.344002 40.007999 44.456001 48.903999 51.127998 58.736 63.183998 64.959999 69.407997 73.856003 81.463997 85.463997 89.463997 93.463997 95.688004 100.136 106.8 111.248 118.856 122.856 127.304 131.752 135.752"
         y="176.168"
         sodipodi:role="line"
         id="tspan432">comportement d’un système sous </tspan><tspan
         x="0 4.448 6.224 8.3039999 10.528 14.976 17.639999 22.087999 26.535999 28.76 32.759998 42.784 46.784 50.784 55.231998 59.68 64.127998 66.792 68.568001 73.015999 77.015999 79.239998 89.264 93.711998 98.160004 102.608 104.384 108.384 112.384 116.832 119.496 129.52 131.29601 135.744"
         y="185.76801"
         sodipodi:role="line"
         id="tspan434">différents scénarios, analyser la </tspan><tspan
         x="0 4.448 8.448 12.896 17.344 24.007999 25.784 30.232 34.68 39.127998 43.175999 47.624001 52.071999 56.112 60.112 64.559998 67.223999 69.447998 73.896004 75.671997 80.120003 84.568001 88.568001 92.615997 94.391998 98.839996 101.064 105.512 108.176 112.624 116.624 118.848 120.624 125.072 129.52 133.528 135.752"
         y="195.368"
         sodipodi:role="line"
         id="tspan436">dynamique de certaines interactions, </tspan><tspan
         x="-0 4.448 6.6719999 10.672"
         y="204.968"
         sodipodi:role="line"
         id="tspan438">etc.</tspan></text>
<g
       id="g440"><g
         id="g442"
         clip-path="url(#clipPath444)"><g
           id="g448"
           transform="translate(87.8584,64.0771)"><path
             d="M 0,0 0,-22.064"
             style="fill:none;stroke:#231f20;stroke-width:0.75;stroke-linecap:butt;stroke-linejoin:miter;stroke-miterlimit:10;stroke-dasharray:none;stroke-opacity:1"
             id="path450"
             inkscape:connector-curvature="0" /></g><g
           id="g452"
           transform="translate(84.1401,43.1074)"><path
             d="M 0,0 3.739,-6.477 7.479,0 0,0 Z"
             style="fill:#231f20;fill-opacity:1;fill-rule:nonzero;stroke:none"
             id="path454"
             inkscape:connector-curvature="0" /></g></g></g><text
       xml:space="preserve"
       style="font-style:normal;font-variant:normal;font-weight:normal;font-stretch:normal;font-size:32px;line-height:125%;font-family:Monospace;-inkscape-font-specification:Monospace;letter-spacing:0px;word-spacing:0px;fill:#000000;fill-opacity:1;stroke:none;stroke-width:1px;stroke-linecap:butt;stroke-linejoin:miter;stroke-opacity:1"
       x="57.627705"
       y="-488.44302"
       id="text4397"
       sodipodi:linespacing="125%"
       transform="scale(1,-1)"><tspan
         sodipodi:role="line"
         id="tspan4399"
         x="57.627705"
         y="-488.44302"
         style="font-style:normal;font-variant:normal;font-weight:bold;font-stretch:normal;font-size:12px;font-family:'Open Sans';-inkscape-font-specification:'Open Sans Bold'">Problem</tspan></text>
<text
       xml:space="preserve"
       style="font-style:normal;font-variant:normal;font-weight:normal;font-stretch:normal;font-size:32px;line-height:125%;font-family:Monospace;-inkscape-font-specification:Monospace;letter-spacing:0px;word-spacing:0px;fill:#000000;fill-opacity:1;stroke:none;stroke-width:1px;stroke-linecap:butt;stroke-linejoin:miter;stroke-opacity:1"
       x="33.805454"
       y="-419.35266"
       id="text4397-3"
       sodipodi:linespacing="125%"
       transform="scale(1,-1)"><tspan
         sodipodi:role="line"
         id="tspan4399-1"
         x="33.805454"
         y="-419.35266"
         style="font-style:normal;font-variant:normal;font-weight:bold;font-stretch:normal;font-size:12px;font-family:'Open Sans';-inkscape-font-specification:'Open Sans Bold'">Conceptual model</tspan></text>
<text
       xml:space="preserve"
       style="font-style:normal;font-variant:normal;font-weight:normal;font-stretch:normal;font-size:32px;line-height:100%;font-family:Monospace;-inkscape-font-specification:Monospace;letter-spacing:0px;word-spacing:0px;fill:#000000;fill-opacity:1;stroke:none;stroke-width:1px;stroke-linecap:butt;stroke-linejoin:miter;stroke-opacity:1"
       x="89.58783"
       y="-352.61743"
       id="text4397-3-0"
       sodipodi:linespacing="100%"
       transform="scale(1,-1)"><tspan
         sodipodi:role="line"
         id="tspan4399-1-4"
         x="89.58783"
         y="-352.61743"
         style="font-style:normal;font-variant:normal;font-weight:bold;font-stretch:normal;font-size:12px;line-height:100%;font-family:'Open Sans';-inkscape-font-specification:'Open Sans Bold';text-align:center;text-anchor:middle">Mathematic</tspan><tspan
         sodipodi:role="line"
         x="89.58783"
         y="-340.61743"
         style="font-style:normal;font-variant:normal;font-weight:bold;font-stretch:normal;font-size:12px;line-height:100%;font-family:'Open Sans';-inkscape-font-specification:'Open Sans Bold';text-align:center;text-anchor:middle"
         id="tspan4437">model</tspan></text>
<text
       xml:space="preserve"
       style="font-style:normal;font-variant:normal;font-weight:normal;font-stretch:normal;font-size:32px;line-height:125%;font-family:Monospace;-inkscape-font-specification:Monospace;letter-spacing:0px;word-spacing:0px;fill:#000000;fill-opacity:1;stroke:none;stroke-width:1px;stroke-linecap:butt;stroke-linejoin:miter;stroke-opacity:1"
       x="17.040466"
       y="-531.93036"
       id="text4397-1"
       sodipodi:linespacing="125%"
       transform="scale(1,-1)"><tspan
         sodipodi:role="line"
         id="tspan4399-2"
         x="17.040466"
         y="-531.93036"
         style="font-style:normal;font-variant:normal;font-weight:bold;font-stretch:normal;font-size:18px;font-family:'Open Sans';-inkscape-font-specification:'Open Sans Bold'">Modeling steps</tspan></text>
<text
       xml:space="preserve"
       style="font-style:normal;font-variant:normal;font-weight:normal;font-stretch:normal;font-size:32px;line-height:125%;font-family:Monospace;-inkscape-font-specification:Monospace;letter-spacing:0px;word-spacing:0px;fill:#000000;fill-opacity:1;stroke:none;stroke-width:1px;stroke-linecap:butt;stroke-linejoin:miter;stroke-opacity:1"
       x="175.53717"
       y="-530.04071"
       id="text4397-1-0"
       sodipodi:linespacing="125%"
       transform="scale(1,-1)"><tspan
         sodipodi:role="line"
         id="tspan4399-2-6"
         x="175.53717"
         y="-530.04071"
         style="font-style:normal;font-variant:normal;font-weight:bold;font-stretch:normal;font-size:18px;font-family:'Open Sans';-inkscape-font-specification:'Open Sans Bold'">Objectives</tspan></text>
</g></svg>